<?xml version="1.0" standalone="no"?>
<!DOCTYPE svg PUBLIC "-//W3C//DTD SVG 20010904//EN"
 "http://www.w3.org/TR/2001/REC-SVG-20010904/DTD/svg10.dtd">
<svg version="1.0" xmlns="http://www.w3.org/2000/svg"
 width="501.000000pt" height="449.000000pt" viewBox="0 0 501.000000 449.000000"
 preserveAspectRatio="xMidYMid meet">

<g transform="translate(0.000000,449.000000) scale(0.100000,-0.100000)"
fill="#000000" stroke="none">
<path d="M2235 3959 c-239 -35 -507 -174 -669 -349 -229 -248 -341 -598 -295
-926 98 -703 811 -1149 1479 -925 230 78 424 219 560 408 246 343 287 772 111
1149 -210 447 -701 713 -1186 643z m-358 -571 l45 -33 154 -3 c137 -3 157 -1
196 17 24 11 51 26 61 33 14 11 19 10 27 -2 7 -11 3 -20 -13 -33 -60 -48 -76
-52 -239 -55 -140 -3 -161 -2 -202 17 l-46 20 5 -22 c39 -173 40 -189 30 -361
l-10 -168 25 -10 c76 -29 220 -57 220 -42 0 3 -25 36 -55 72 -39 47 -51 68
-42 74 20 13 22 11 93 -77 l69 -85 200 0 200 0 69 85 c71 88 73 90 93 77 9 -6
-4 -28 -43 -75 -31 -38 -54 -71 -51 -74 9 -8 84 6 162 31 66 21 70 24 69 52
-8 165 -3 347 11 409 8 39 18 80 20 92 l5 22 -42 -19 c-36 -17 -66 -20 -193
-20 -158 0 -192 8 -253 57 -20 17 -22 21 -9 32 12 9 22 7 52 -13 50 -34 78
-38 242 -34 141 3 141 3 186 36 25 17 48 32 51 32 12 0 5 -78 -17 -180 -21
-97 -22 -120 -15 -305 4 -121 13 -228 23 -270 9 -39 19 -143 22 -237 l6 -168
-250 0 -250 0 -44 34 -43 35 -26 -19 c-15 -11 -33 -26 -40 -35 -11 -13 -50
-15 -268 -15 l-255 0 6 173 c3 94 11 201 17 237 6 36 17 156 23 268 l12 203
-27 122 c-39 178 -39 180 39 125z m229 -195 c63 -47 169 -42 213 11 17 20 41
21 41 1 0 -39 -87 -85 -160 -85 -63 1 -163 61 -145 89 9 15 12 14 51 -16z
m365 11 c22 -27 67 -44 117 -44 39 0 58 6 92 31 30 22 45 28 53 20 15 -15 -18
-49 -68 -72 -71 -33 -157 -21 -213 31 -32 29 -35 50 -8 50 8 0 19 -7 27 -16z
m-228 -174 c35 0 67 6 81 15 20 13 25 13 35 2 8 -11 6 -18 -10 -33 -17 -15
-37 -19 -104 -19 -67 0 -87 4 -104 19 -16 14 -18 22 -10 32 9 11 15 11 32 -1
13 -9 44 -15 80 -15z m304 0 c36 0 67 6 80 15 17 12 23 12 32 1 8 -10 6 -18
-10 -32 -17 -15 -37 -19 -104 -19 -67 0 -87 4 -104 19 -16 15 -18 22 -10 33
10 11 15 11 35 -2 14 -9 46 -15 81 -15z m83 -131 c0 -5 -14 -16 -32 -25 -41
-21 -129 -15 -158 11 -28 25 -10 43 25 27 37 -17 110 -15 125 3 10 12 16 13
26 4 8 -6 14 -15 14 -20z m-376 4 c21 -3 48 0 61 7 23 13 55 8 55 -8 0 -17
-61 -42 -105 -42 -45 0 -105 22 -105 39 0 15 15 22 35 15 11 -3 37 -9 59 -11z
m132 -94 c4 -8 9 -8 17 0 16 16 47 14 47 -3 0 -37 -73 -53 -97 -20 -7 10 -13
21 -13 26 0 12 38 10 46 -3z"/>
<path d="M1866 2641 c-9 -64 -16 -167 -16 -228 l0 -113 224 0 c202 0 226 2
246 18 l23 18 -44 26 c-62 37 -106 85 -92 99 9 9 24 1 59 -30 53 -46 107 -65
160 -55 35 6 134 76 134 94 0 5 7 7 15 4 8 -4 15 -11 15 -18 0 -17 -69 -81
-108 -101 -33 -16 -33 -17 -16 -36 16 -18 33 -19 247 -19 l230 0 -6 148 c-6
126 -27 285 -41 299 -2 2 -46 -8 -97 -23 -88 -25 -111 -27 -340 -31 -268 -6
-365 2 -496 41 l-80 23 -17 -116z"/>
<path d="M510 795 l0 -385 385 0 385 0 0 85 0 86 -300 -3 -300 -3 -2 300 -3
300 -82 3 -83 3 0 -386z"/>
<path d="M1569 1171 c-46 -15 -78 -42 -99 -85 -19 -39 -20 -61 -20 -292 1
-391 -6 -384 394 -384 242 0 252 1 291 23 22 12 50 40 62 62 23 39 23 45 21
310 l-3 270 -25 33 c-48 65 -58 67 -340 69 -140 1 -267 -2 -281 -6z m483 -381
l-3 -215 -217 2 -217 2 -3 215 -2 216 217 2 c120 2 220 1 223 -2 3 -3 4 -102
2 -220z"/>
<path d="M2450 796 l0 -386 80 0 79 0 3 126 3 127 110 -2 110 -1 42 -48 c24
-26 71 -82 105 -124 l63 -77 88 0 c86 -1 87 -1 87 24 0 16 -28 57 -85 123 -46
55 -81 102 -78 106 4 3 19 6 34 6 41 0 104 63 119 120 16 59 9 254 -11 294 -8
16 -31 43 -52 60 l-39 31 -329 3 -329 3 0 -385z m600 129 l0 -95 -220 0 -220
0 0 90 0 90 218 3 c119 1 218 3 220 5 1 1 2 -41 2 -93z"/>
<path d="M3410 1173 c0 -8 282 -394 326 -446 23 -27 24 -36 24 -173 l0 -144
80 0 80 0 0 143 0 144 175 236 c96 130 175 239 175 242 0 3 -42 5 -93 5 l-94
0 -123 -155 -123 -154 -121 154 -121 154 -92 1 c-51 0 -93 -3 -93 -7z"/>
</g>
</svg>
